HIERARCHY
ROOT joint_Root
{
	OFFSET 0.0 0.0 0.0
	CHANNELS 6 Xposition Yposition Zposition Zrotation Xrotation Yrotation 
	JOINT Hips
	{
		OFFSET -0.726466 93.3139 -2.00062
		CHANNELS 6 Xposition Yposition Zposition Zrotation Xrotation Yrotation 
		JOINT Spine
		{
			OFFSET 15.7357 0.0 0.0
			CHANNELS 6 Xposition Yposition Zposition Zrotation Xrotation Yrotation 
			JOINT Chest
			{
				OFFSET 8.98455 -0.406207 0.0
				CHANNELS 6 Xposition Yposition Zposition Zrotation Xrotation Yrotation 
				JOINT Neck
				{
					OFFSET 16.3773 0.0 0.0
					CHANNELS 6 Xposition Yposition Zposition Zrotation Xrotation Yrotation 
					JOINT Head
					{
						OFFSET 6.45672 0.0 0.0
						CHANNELS 6 Xposition Yposition Zposition Zrotation Xrotation Yrotation 
						End Site
						{
							OFFSET 0.0 0.0 0.0
						}
					}
				}
				JOINT Shoulder_L
				{
					OFFSET 12.9942 -0.242716 4.98039
					CHANNELS 6 Xposition Yposition Zposition Zrotation Xrotation Yrotation 
					JOINT UpperArm_L
					{
						OFFSET 5.34809 0.0 0.0
						CHANNELS 6 Xposition Yposition Zposition Zrotation Xrotation Yrotation 
						JOINT LowerArm_L
						{
							OFFSET 24.3286 1.87007e-05 0.0
							CHANNELS 6 Xposition Yposition Zposition Zrotation Xrotation Yrotation 
							JOINT Hand_L
							{
								OFFSET 22.2916 0.0 0.0
								CHANNELS 6 Xposition Yposition Zposition Zrotation Xrotation Yrotation 
								End Site
								{
									OFFSET 0.0 0.0 0.0
								}
							}
						}
					}
				}
				JOINT Shoulder_R
				{
					OFFSET 12.9945 -0.242716 -4.98039
					CHANNELS 6 Xposition Yposition Zposition Zrotation Xrotation Yrotation 
					JOINT UpperArm_R
					{
						OFFSET -5.34813 0.0 0.0
						CHANNELS 6 Xposition Yposition Zposition Zrotation Xrotation Yrotation 
						JOINT LowerArm_R
						{
							OFFSET -24.3289 0.000322201 0.0
							CHANNELS 6 Xposition Yposition Zposition Zrotation Xrotation Yrotation 
							JOINT Hand_R
							{
								OFFSET -22.2915 -0.000108084 0.0
								CHANNELS 6 Xposition Yposition Zposition Zrotation Xrotation Yrotation 
								End Site
								{
									OFFSET 0.0 0.0 0.0
								}
							}
						}
					}
				}
			}
		}
		JOINT UpperLeg_L
		{
			OFFSET -2.19248 -6.46944 0.0
			CHANNELS 6 Xposition Yposition Zposition Zrotation Xrotation Yrotation 
			JOINT LowerLeg_L
			{
				OFFSET 39.0811 0.0 -1.23785e-05
				CHANNELS 6 Xposition Yposition Zposition Zrotation Xrotation Yrotation 
				JOINT Foot_L
				{
					OFFSET 40.9854 0.0 -1.26872e-05
					CHANNELS 6 Xposition Yposition Zposition Zrotation Xrotation Yrotation 
					JOINT Toes_L
					{
						OFFSET 11.7543 0.0 0.0
						CHANNELS 6 Xposition Yposition Zposition Zrotation Xrotation Yrotation 
						End Site
						{
							OFFSET 0.0 0.0 0.0
						}
					}
				}
			}
		}
		JOINT UpperLeg_R
		{
			OFFSET -2.19251 6.46944 0.0
			CHANNELS 6 Xposition Yposition Zposition Zrotation Xrotation Yrotation 
			JOINT LowerLeg_R
			{
				OFFSET -39.0811 -0.00228153 -0.0401928
				CHANNELS 6 Xposition Yposition Zposition Zrotation Xrotation Yrotation 
				JOINT Foot_R
				{
					OFFSET -40.9854 0.0 0.0
					CHANNELS 6 Xposition Yposition Zposition Zrotation Xrotation Yrotation 
					JOINT Toes_R
					{
						OFFSET -11.7543 0.0 0.0
						CHANNELS 6 Xposition Yposition Zposition Zrotation Xrotation Yrotation 
						End Site
						{
							OFFSET 0.0 0.0 0.0
						}
					}
				}
			}
		}
	}
}
MOTION
Frames:	9
Frame Time:	0.0333333
0.000000 0.000000 0.000000 0.000000 0.000000 -0.000000 -224.159000 86.709600 182.718000 18.787500 84.338800 70.202000 15.735700 0.000005 -0.000001 71.288700 79.622100 -68.742700 8.984550 -0.406207 -0.000000 12.100700 -6.504270 5.785330 16.377300 -0.000001 -0.000001 6.660740 -0.869531 0.573332 6.456720 -0.000001 -0.000000 -0.307785 4.640020 -1.721120 12.994200 -0.242716 4.980390 -89.051500 -2.895980 -71.856500 5.348090 -0.000007 -0.000001 -47.946400 20.895500 -33.033600 24.328600 0.000019 0.000005 2.434410 1.768630 -54.021200 22.291600 -0.000001 0.000005 7.237620 5.576950 -10.049200 12.994500 -0.242716 -4.980390 88.168200 3.839740 -64.471400 -5.348130 -0.000001 -0.000004 -62.404600 22.817200 -2.546520 -24.328900 0.000322 -0.000009 5.261440 8.746720 -31.203400 -22.291500 -0.000108 -0.000004 3.058080 5.524280 -7.545610 -2.192480 -6.469440 -0.000000 -170.334000 -6.844310 9.399610 39.081100 -0.000007 -0.000012 -0.067718 0.147148 24.712200 40.985400 -0.000006 -0.000013 0.252604 -0.081360 -85.007900 11.754300 -0.000000 0.000003 -0.000008 -0.000136 -16.583000 -2.192510 6.469440 -0.000001 -170.871000 18.807600 144.654000 -39.081100 -0.002282 -0.040193 0.028257 -0.058207 23.195200 -40.985400 0.000008 0.000006 4.244090 -2.864930 -52.965700 -11.754300 -0.000006 -0.000006 -0.020604 -0.170610 -23.544700
0.000000 0.000000 0.000000 0.000000 0.000000 -0.000000 -220.637000 86.088400 183.978000 -2.557180 84.341300 90.810800 15.735700 0.000005 -0.000001 70.112500 79.758200 -66.987200 8.984550 -0.406207 -0.000000 11.751600 -6.802010 6.955470 16.377300 -0.000001 -0.000001 6.570090 -1.546800 0.814315 6.456720 -0.000001 -0.000000 -0.514807 4.161580 -2.076450 12.994200 -0.242716 4.980390 -89.200300 -2.489990 -72.188500 5.348090 -0.000007 -0.000001 -48.061800 22.603700 -31.528900 24.328600 0.000019 0.000005 2.498920 1.724310 -55.412500 22.291600 -0.000001 0.000005 7.112260 5.577210 -10.063700 12.994500 -0.242716 -4.980390 87.984600 4.172220 -64.187800 -5.348130 -0.000001 -0.000004 -62.480300 21.929500 -1.682350 -24.328900 0.000322 -0.000009 5.311220 8.956720 -30.847500 -22.291500 -0.000108 -0.000004 3.258160 5.523210 -7.499380 -2.192480 -6.469440 -0.000000 -168.538000 -5.877620 9.856440 39.081100 -0.000007 -0.000012 0.001102 -0.002268 25.903500 40.985400 -0.000006 -0.000013 0.407191 1.468330 -83.182300 11.754300 -0.000000 0.000003 -1.268610 -1.477780 -20.180100 -2.192510 6.469440 -0.000001 -171.827000 16.987700 142.254000 -39.081100 -0.002282 -0.040193 0.050057 -0.082178 29.637100 -40.985400 0.000008 0.000006 3.005220 -3.336580 -48.356500 -11.754300 -0.000006 -0.000006 -0.023185 -0.184332 -24.110700
0.000000 0.000000 0.000000 0.000000 0.000000 -0.000000 -216.590000 85.606300 185.356000 -15.757700 83.272800 104.234000 15.735700 0.000005 -0.000001 70.166400 79.685900 -66.300600 8.984550 -0.406207 -0.000000 11.943600 -6.798860 8.449020 16.377300 -0.000001 -0.000001 6.286190 -1.927690 0.905774 6.456720 -0.000001 -0.000000 -0.682507 3.572920 -2.688990 12.994200 -0.242716 4.980390 -89.343300 -2.050840 -72.240500 5.348090 -0.000007 -0.000001 -49.071700 25.043000 -29.231100 24.328600 0.000019 0.000005 3.416200 2.291550 -56.184600 22.291600 -0.000001 0.000005 7.022190 5.583160 -10.383200 12.994500 -0.242716 -4.980390 88.008400 4.158240 -64.380000 -5.348130 -0.000001 -0.000004 -62.888300 21.143800 -1.339420 -24.328900 0.000322 -0.000009 5.061270 8.921600 -29.735800 -22.291500 -0.000108 -0.000004 3.547040 5.523880 -7.528340 -2.192480 -6.469440 -0.000000 -166.100000 -4.365500 10.574200 39.081100 -0.000007 -0.000012 -0.046937 0.086858 28.386100 40.985400 -0.000006 -0.000013 -0.472877 2.950350 -78.743600 11.754300 -0.000000 0.000003 -2.589710 -2.587520 -25.985200 -2.192510 6.469440 -0.000001 -172.570000 14.580400 141.804000 -39.081100 -0.002282 -0.040193 0.034694 -0.042528 36.445700 -40.985400 0.000008 0.000006 1.348220 -7.585080 -50.350300 -11.754300 -0.000006 -0.000006 -0.018376 -0.158124 -23.030500
0.000000 0.000000 0.000000 0.000000 0.000000 -0.000000 -212.252000 85.364300 186.722000 -19.472400 82.656800 108.591000 15.735700 0.000005 -0.000001 70.961300 79.614200 -66.632700 8.984550 -0.406207 -0.000000 12.192400 -6.549130 9.363750 16.377300 -0.000001 -0.000001 6.170610 -2.119940 0.948122 6.456720 -0.000001 -0.000000 -0.740763 3.075090 -3.138760 12.994200 -0.242716 4.980390 -89.346500 -2.027620 -72.130400 5.348090 -0.000007 -0.000001 -51.810400 27.501400 -25.767900 24.328600 0.000019 0.000005 4.619900 3.112630 -56.101500 22.291600 -0.000001 0.000005 6.523650 5.581560 -10.294400 12.994500 -0.242716 -4.980390 88.131800 3.987920 -64.873400 -5.348130 -0.000001 -0.000004 -63.305700 21.406600 -2.280760 -24.328900 0.000322 -0.000009 4.776880 9.271410 -27.421100 -22.291500 -0.000108 -0.000004 3.512510 5.521830 -7.439810 -2.192480 -6.469440 -0.000000 -164.860000 -2.441050 10.770400 39.081100 -0.000007 -0.000012 -0.023146 0.035734 32.933500 40.985400 -0.000006 -0.000013 -1.120490 2.150260 -74.000800 11.754300 -0.000000 0.000003 -0.073885 -0.374493 -32.099600 -2.192510 6.469440 -0.000001 -172.199000 14.046700 142.415000 -39.081100 -0.002282 -0.040193 0.015653 -0.013359 42.825100 -40.985400 0.000008 0.000006 2.473540 -8.337220 -56.555600 -11.754300 -0.000006 -0.000006 -0.012812 -0.123567 -21.611500
0.000000 0.000000 0.000000 0.000000 0.000000 -0.000000 -207.931000 85.472800 188.022000 -22.119700 83.133300 112.472000 15.735700 0.000005 -0.000001 71.976300 79.555000 -67.740900 8.984550 -0.406207 -0.000000 12.399500 -6.233700 9.154570 16.377300 -0.000001 -0.000001 6.316400 -2.407620 1.013280 6.456720 -0.000001 -0.000000 -0.305063 2.492620 -3.216510 12.994200 -0.242716 4.980390 -89.289700 -2.226350 -72.299700 5.348090 -0.000007 -0.000001 -55.620200 29.622500 -21.216600 24.328600 0.000019 0.000005 5.661730 3.973160 -55.053900 22.291600 -0.000001 0.000005 6.092620 5.579850 -10.203200 12.994500 -0.242716 -4.980390 88.046400 4.214230 -65.100400 -5.348130 -0.000001 -0.000004 -63.209100 22.878500 -4.101520 -24.328900 0.000322 -0.000009 4.643520 10.137800 -24.777300 -22.291500 -0.000108 -0.000004 3.522070 5.518580 -7.301220 -2.192480 -6.469440 -0.000000 -165.156000 -1.220700 9.339550 39.081100 -0.000007 -0.000012 0.033870 -0.040164 40.139400 40.985400 -0.000006 -0.000013 0.209699 -0.056967 -65.646400 11.754300 -0.000000 0.000003 -0.126064 -0.505114 -37.804500 -2.192510 6.469440 -0.000001 -172.777000 14.369700 145.177000 -39.081100 -0.002282 -0.040193 -0.025202 0.027092 46.413000 -40.985400 0.000008 0.000006 2.043820 -8.622830 -61.756400 -11.754300 -0.000006 -0.000006 -0.010292 -0.105808 -20.884400
0.000000 0.000000 0.000000 0.000000 0.000000 -0.000000 -204.054000 85.936700 189.130000 -20.967700 84.003900 112.535000 15.735700 0.000005 -0.000001 74.068000 79.556800 -70.127700 8.984550 -0.406207 -0.000000 12.564500 -5.514830 8.492580 16.377300 -0.000001 -0.000001 6.385320 -2.648670 1.241070 6.456720 -0.000001 -0.000000 -0.049695 1.723580 -3.529860 12.994200 -0.242716 4.980390 -89.151700 -2.654260 -72.269400 5.348090 -0.000007 -0.000001 -60.181700 30.781100 -16.780000 24.328600 0.000019 0.000005 6.646360 5.071630 -52.816600 22.291600 -0.000001 0.000005 5.083560 5.580030 -10.212600 12.994500 -0.242716 -4.980390 88.050900 4.263810 -65.405900 -5.348130 -0.000001 -0.000004 -63.561300 23.528800 -6.192620 -24.328900 0.000322 -0.000009 4.865470 11.424100 -23.261100 -22.291500 -0.000108 -0.000004 3.578000 5.509960 -6.940400 -2.192480 -6.469440 -0.000000 -166.170000 -0.329830 5.619020 39.081100 -0.000007 -0.000012 0.094786 -0.081324 49.370300 40.985400 -0.000006 -0.000013 0.402775 -3.348610 -55.427300 11.754300 -0.000000 0.000003 -0.057048 -0.322068 -29.867200 -2.192510 6.469440 -0.000001 -173.458000 15.170800 148.961000 -39.081100 -0.002282 -0.040193 -0.042613 0.042096 47.456400 -40.985400 0.000008 0.000006 2.414800 -7.928620 -65.429100 -11.754300 -0.000006 -0.000006 -0.009274 -0.098128 -20.570400
0.000000 0.000000 0.000000 0.000000 0.000000 -0.000000 -200.637000 86.665400 190.002000 -18.253600 84.714800 110.366000 15.735700 0.000005 -0.000001 76.811700 79.697100 -73.125000 8.984550 -0.406207 -0.000000 12.481700 -4.506080 7.868930 16.377300 -0.000001 -0.000001 6.180790 -2.924200 1.485600 6.456720 -0.000001 -0.000000 -0.066668 0.688263 -3.861090 12.994200 -0.242716 4.980390 -89.111300 -2.751780 -72.093200 5.348090 -0.000007 -0.000001 -63.835800 31.665700 -13.143700 24.328600 0.000019 0.000005 7.100360 5.948840 -50.239200 22.291600 -0.000001 0.000005 4.518380 5.569640 -9.670000 12.994500 -0.242716 -4.980390 88.171700 4.092620 -65.903300 -5.348130 -0.000001 -0.000004 -64.177200 23.397600 -8.244290 -24.328900 0.000322 -0.000009 4.771720 11.082100 -23.479700 -22.291500 -0.000108 -0.000004 3.788040 5.503530 -6.676240 -2.192480 -6.469440 -0.000000 -167.340000 -0.504760 0.283194 39.081100 -0.000007 -0.000012 0.125740 -0.079087 57.829700 40.985400 -0.000006 -0.000013 3.986980 -6.261430 -46.098700 11.754300 -0.000000 0.000003 -0.004059 -0.052057 -18.694400 -2.192510 6.469440 -0.000001 -174.036000 15.057500 152.750000 -39.081100 -0.002282 -0.040193 -0.018675 0.020788 46.537400 -40.985400 0.000008 0.000006 2.714760 -7.863330 -67.718600 -11.754300 -0.000006 -0.000006 -0.008540 -0.092384 -20.335600
0.000000 0.000000 0.000000 0.000000 0.000000 -0.000000 -197.502000 87.439700 190.629000 -15.508700 85.374200 107.860000 15.735700 0.000005 -0.000001 80.078000 79.921800 -76.681900 8.984550 -0.406207 -0.000000 12.212000 -3.310360 7.146730 16.377300 -0.000001 -0.000001 5.961800 -3.240900 1.619520 6.456720 -0.000001 -0.000000 0.033446 -0.443488 -3.919800 12.994200 -0.242716 4.980390 -89.128100 -2.657560 -71.829300 5.348090 -0.000007 -0.000001 -66.541100 32.452200 -10.307700 24.328600 0.000019 0.000005 6.721570 6.245170 -47.291600 22.291600 -0.000001 0.000005 4.253190 5.564400 -9.404710 12.994500 -0.242716 -4.980390 88.278400 3.932360 -66.332800 -5.348130 -0.000001 -0.000004 -64.232000 23.924200 -10.424300 -24.328900 0.000322 -0.000009 4.421520 9.530340 -25.041500 -22.291500 -0.000108 -0.000004 3.780560 5.502600 -6.638490 -2.192480 -6.469440 -0.000000 -168.489000 -1.345470 -4.632830 39.081100 -0.000007 -0.000012 0.119372 -0.056835 64.538100 40.985400 -0.000006 -0.000013 4.919340 -7.684390 -49.702300 11.754300 -0.000000 0.000003 -0.005327 -0.064606 -19.205700 -2.192510 6.469440 -0.000001 -174.679000 14.265700 156.422000 -39.081100 -0.002282 -0.040193 0.018691 -0.015549 44.773600 -40.985400 0.000008 0.000006 2.861840 -8.439730 -69.273900 -11.754300 -0.000006 -0.000006 -0.008406 -0.091317 -20.292000
0.000000 0.000000 0.000000 0.000000 0.000000 -0.000000 -194.596000 88.305000 191.039000 -12.404300 86.478100 104.819000 15.735700 0.000005 -0.000001 83.184800 80.172600 -80.293900 8.984550 -0.406207 -0.000000 11.819200 -2.210470 6.009500 16.377300 -0.000001 -0.000001 5.995760 -3.476150 1.597610 6.456720 -0.000001 -0.000000 0.095307 -1.407970 -3.804250 12.994200 -0.242716 4.980390 -89.156900 -2.487020 -71.266900 5.348090 -0.000007 -0.000001 -68.671100 32.705500 -7.837060 24.328600 0.000019 0.000005 6.284260 6.539220 -44.037900 22.291600 -0.000001 0.000005 3.932270 5.559420 -9.158530 12.994500 -0.242716 -4.980390 88.384200 3.766690 -66.761500 -5.348130 -0.000001 -0.000004 -63.532300 25.451100 -13.280000 -24.328900 0.000322 -0.000009 4.162810 8.253830 -26.892900 -22.291500 -0.000108 -0.000004 3.946810 5.505900 -6.773260 -2.192480 -6.469440 -0.000000 -170.138000 -2.868370 -9.751760 39.081100 -0.000007 -0.000012 0.124375 -0.049362 68.350300 40.985400 -0.000006 -0.000013 4.981400 -6.787550 -51.589800 11.754300 -0.000000 0.000003 -0.003595 -0.047166 -18.495200 -2.192510 6.469440 -0.000001 -175.843000 14.187000 160.063000 -39.081100 -0.002282 -0.040193 0.054559 -0.056456 42.252900 -40.985400 0.000008 0.000006 3.219930 -8.274760 -70.226600 -11.754300 -0.000006 -0.000006 -0.008459 -0.091740 -20.309300
